<?xml version="1.0" standalone="no"?>
<!DOCTYPE svg PUBLIC "-//W3C//DTD SVG 20010904//EN"
 "http://www.w3.org/TR/2001/REC-SVG-20010904/DTD/svg10.dtd">
<svg version="1.0" xmlns="http://www.w3.org/2000/svg"
 width="698.000000pt" height="698.000000pt" viewBox="0 0 698.000000 698.000000"
 preserveAspectRatio="xMidYMid meet">
<metadata>
Created by potrace 1.14, written by Peter Selinger 2001-2017
</metadata>
<g transform="translate(0.000000,698.000000) scale(0.100000,-0.100000)"
fill="#000000" stroke="none">
<path d="M0 5698 c0 -705 2 -1279 4 -1277 1 2 32 60 68 129 194 374 404 654
753 1004 83 82 131 133 107 113 -23 -20 -45 -37 -48 -37 -12 0 5 95 31 174 36
109 107 259 189 401 161 281 355 487 558 594 31 16 59 26 63 23 4 -4 10 0 15
8 5 8 31 45 59 83 l50 67 -924 0 -925 0 0 -1282z m237 -587 c35 -52 57 -135
45 -171 -11 -30 -132 -199 -144 -200 -3 0 -17 21 -29 48 -33 67 -31 164 5 251
29 71 62 113 85 109 9 -2 26 -19 38 -37z"/>
<path d="M4972 6968 c8 -7 22 -26 31 -43 25 -48 97 -214 97 -224 0 -6 57 -67
126 -136 l127 -127 58 -129 c66 -144 75 -161 136 -237 52 -65 60 -90 39 -131
-16 -30 -25 -35 -56 -31 -8 1 8 -19 35 -44 51 -46 68 -56 60 -33 -3 7 18 36
47 64 77 75 177 105 220 66 16 -14 21 -15 28 -4 12 21 80 4 113 -27 41 -38 59
-78 56 -121 -2 -22 4 -46 14 -61 35 -50 14 -187 -38 -255 -41 -54 -58 -59 -94
-29 -45 37 -38 23 22 -48 56 -67 202 -270 254 -353 92 -148 236 -439 365 -737
l21 -48 -44 -85 c-23 -47 -46 -85 -50 -85 -3 0 -21 53 -39 118 -27 98 -96 296
-154 442 -8 19 -26 68 -41 108 -15 39 -31 72 -36 72 -12 0 -11 -6 7 -42 9 -17
28 -61 41 -97 14 -36 41 -106 60 -156 57 -149 143 -443 143 -490 0 -11 -28 8
-81 56 -137 125 -259 214 -410 302 -53 30 -59 43 -84 177 -19 103 -67 277 -61
220 3 -19 19 -98 36 -175 51 -231 69 -649 42 -992 -15 -192 -27 -264 -47 -279
-10 -8 -11 -14 -4 -21 12 -12 -9 -166 -37 -281 -9 -35 -14 -66 -10 -69 3 -3 7
5 10 18 3 13 14 62 25 109 11 47 25 111 31 143 7 33 17 57 24 57 37 0 209
-154 261 -234 42 -64 43 -681 1 -926 -32 -191 -57 -293 -87 -357 -31 -68 -49
-115 -115 -293 -43 -117 -116 -376 -139 -490 -30 -157 -77 -281 -143 -378 -47
-69 -172 -202 -190 -202 -11 0 -39 37 -76 100 -110 186 -164 224 -366 261 -36
6 -228 14 -430 18 -422 7 -365 -6 -580 136 -212 140 -480 298 -629 371 -77 38
-140 73 -138 79 2 5 16 16 31 24 43 21 124 103 131 134 9 33 -8 77 -40 110
-68 67 -391 77 -588 17 -38 -12 -68 -23 -66 -25 2 -1 51 8 109 22 85 20 133
25 250 26 237 2 320 -30 320 -122 0 -53 -41 -101 -124 -141 l-62 -31 -99 28
-100 28 -370 0 c-329 0 -389 -3 -545 -23 -163 -22 -237 -34 -285 -49 -18 -5
-18 -5 -2 21 11 16 15 35 11 50 -5 20 4 29 73 73 202 130 413 188 597 166 108
-13 138 -34 119 -83 -6 -16 -8 -30 -5 -30 4 0 30 14 57 31 28 17 41 28 30 24
-47 -17 -51 -16 -63 9 -18 41 -63 57 -175 63 -86 4 -120 1 -218 -20 -132 -30
-194 -52 -297 -109 -40 -22 -75 -38 -77 -37 -5 6 31 139 48 180 12 29 22 37
58 46 24 6 54 14 66 18 17 6 28 -3 63 -50 23 -31 44 -54 47 -52 3 3 -22 50
-56 104 -33 54 -74 131 -92 171 -18 40 -33 71 -35 69 -4 -3 56 -152 75 -186
20 -36 1 -46 -93 -49 -69 -3 -92 0 -131 17 -85 38 -143 91 -237 218 -80 110
-157 193 -311 334 -48 44 -48 45 -68 154 -13 72 -22 177 -26 302 -7 218 -4
233 71 353 139 225 207 258 372 181 l64 -30 0 -110 c0 -61 -3 -111 -7 -111 -3
0 -31 19 -62 41 l-56 42 34 -36 c19 -20 48 -43 65 -51 31 -15 31 -16 47 -138
29 -220 111 -593 153 -692 9 -22 14 -41 12 -43 -2 -3 -42 14 -88 36 -46 22
-105 45 -131 52 -32 7 -65 27 -97 56 -58 52 -68 44 -12 -10 23 -22 61 -44 97
-57 90 -31 244 -110 260 -134 21 -30 19 -20 -24 127 -73 244 -89 315 -137 587
-22 127 -26 185 -31 460 -6 327 -1 428 38 739 19 159 20 219 0 89 -30 -202
-31 -204 -197 -412 -78 -97 -262 -276 -285 -276 -12 0 -14 -3 92 135 96 127
241 359 313 503 60 119 63 150 6 56 -19 -31 -45 -69 -59 -83 -14 -15 -42 -47
-61 -71 -50 -62 -199 -224 -211 -228 -14 -5 -11 10 16 97 14 44 37 93 50 110
16 18 25 41 25 63 0 19 5 39 12 46 6 6 10 36 9 70 -2 67 15 146 35 163 10 8
11 15 1 29 -10 18 -12 17 -24 -11 -11 -26 -33 -155 -48 -282 -4 -29 -10 -45
-17 -41 -19 12 8 260 37 336 5 13 2 15 -14 11 -14 -4 -20 -11 -16 -22 3 -9 0
-32 -5 -51 -6 -19 -15 -100 -21 -180 -10 -124 -17 -162 -50 -263 -22 -65 -47
-149 -55 -185 -8 -37 -28 -121 -44 -187 -98 -412 -104 -766 -19 -1128 65 -277
239 -645 400 -845 23 -29 39 -55 36 -58 -3 -3 -60 -21 -127 -40 -142 -40 -128
-44 -226 71 -103 121 -194 262 -254 390 -41 88 -135 374 -144 437 -8 53 -26
75 -26 31 0 -25 34 -169 58 -248 21 -68 96 -245 131 -310 60 -112 146 -237
227 -330 41 -47 73 -89 70 -94 -3 -5 -26 -14 -51 -20 -40 -10 -52 -9 -91 8
-112 50 -294 199 -382 313 -93 121 -163 252 -238 443 -54 138 -59 147 -62 110
-2 -22 9 -96 23 -165 14 -69 32 -165 40 -215 19 -120 85 -312 126 -364 10 -13
19 -31 19 -40 0 -29 51 -125 91 -173 21 -26 39 -49 39 -52 0 -9 -82 23 -126
49 -23 14 -67 48 -98 76 -31 28 -59 49 -62 46 -4 -3 9 -25 29 -49 25 -32 36
-57 41 -96 7 -57 24 -102 38 -102 10 0 10 13 -1 42 -4 13 -11 39 -15 60 l-7
36 79 -40 c45 -23 99 -42 127 -46 l49 -5 -34 42 c-43 52 -79 104 -79 113 -1 4
24 -10 56 -32 31 -22 63 -40 72 -41 9 0 34 -8 55 -18 l40 -17 -40 -22 c-21
-12 -82 -43 -134 -68 -206 -98 -251 -123 -428 -229 -383 -230 -529 -325 -499
-325 3 0 69 42 147 92 228 151 383 246 492 303 75 39 99 46 53 15 -40 -26 -22
-26 21 1 37 22 44 32 17 22 -11 -5 -14 -3 -9 6 5 7 16 11 26 8 10 -3 33 4 52
16 269 165 684 337 944 392 143 30 167 15 86 -54 -92 -80 -349 -205 -637 -311
-77 -28 -144 -55 -148 -59 -4 -4 3 -16 17 -25 38 -24 32 -52 -23 -104 -103
-99 -417 -242 -643 -292 -61 -14 -67 -24 -18 -34 40 -7 80 -48 80 -81 0 -59
-63 -138 -164 -204 -72 -47 -173 -96 -238 -115 l-58 -17 0 -89 0 -90 3490 0
3490 0 0 145 0 145 -55 0 c-41 0 -55 -4 -55 -14 0 -8 5 -18 10 -21 20 -12 9
-43 -22 -67 -18 -13 -67 -42 -108 -63 -68 -35 -81 -38 -148 -36 -80 1 -187 15
-244 31 -33 10 -79 54 -146 142 -18 23 1 57 81 144 79 85 156 131 186 112 17
-11 25 -9 53 12 156 116 241 151 298 120 18 -9 24 -1 66 82 26 51 55 105 65
120 18 25 19 109 19 3077 l0 3051 -1012 0 c-811 0 -1009 -2 -996 -12z m282
-360 c13 -13 41 -39 63 -58 22 -20 46 -47 54 -62 8 -14 25 -45 38 -69 13 -24
29 -51 36 -59 7 -8 16 -37 20 -65 4 -27 13 -54 21 -60 8 -6 10 -15 5 -23 -5
-9 -21 18 -46 80 -43 102 -78 166 -104 186 -43 34 -131 127 -131 139 0 20 18
16 44 -9z m656 -608 c10 -7 -6 -8 -50 -4 -36 4 -67 8 -69 10 -10 9 105 3 119
-6z m-173 -26 c-3 -3 -12 -4 -19 -1 -8 3 -5 6 6 6 11 1 17 -2 13 -5z m-88 -66
c-18 -24 -34 -45 -36 -47 -2 -3 -11 3 -20 12 -16 15 -15 18 7 41 12 14 26 24
29 21 4 -2 13 0 21 6 31 19 30 7 -1 -33z m468 -1554 c136 -87 239 -172 374
-306 177 -176 289 -318 289 -365 0 -14 -4 -23 -10 -21 -5 2 -65 62 -132 133
-227 240 -406 398 -543 478 -53 31 -62 41 -77 85 -29 80 -31 80 99 -4z m-99
-54 c52 -164 127 -490 151 -657 27 -183 53 -437 49 -476 l-3 -32 -33 53 c-47
76 -115 140 -179 168 l-55 25 6 37 c19 113 30 345 30 635 -1 181 2 325 6 320
4 -4 17 -37 28 -73z m134 -86 c86 -58 141 -103 242 -196 52 -48 58 -57 52 -81
-6 -24 -173 -281 -225 -347 -24 -30 -23 -32 -45 105 -9 55 -41 200 -71 322
-58 233 -61 253 -45 253 5 0 47 -25 92 -56z m522 -5 c6 -19 2 -39 -19 -84 -15
-33 -36 -80 -47 -105 l-20 -45 -24 30 c-13 17 -24 34 -24 38 0 4 21 50 47 103
49 99 69 113 87 63z m30 -171 c27 -105 54 -249 46 -246 -9 4 -150 168 -150
175 0 11 73 143 79 143 4 0 15 -33 25 -72z m-202 -200 c-45 -89 -269 -391
-283 -383 -5 4 -9 25 -9 48 1 35 9 53 50 107 28 36 87 122 132 192 l83 127 25
-25 24 -24 -22 -42z m48 7 c0 -2 7 -55 17 -117 35 -239 5 -686 -66 -998 -51
-221 -109 -414 -214 -708 -30 -84 -51 -154 -47 -157 13 -8 60 113 154 400 103
312 137 457 171 715 37 288 41 460 19 765 l-6 80 59 -60 c69 -72 121 -132 132
-154 12 -21 33 -617 26 -706 -3 -39 -10 -164 -15 -280 -11 -248 -50 -646 -85
-869 -29 -185 -30 -205 -11 -212 30 -11 139 -388 170 -585 8 -52 18 -103 22
-112 4 -12 1 -17 -12 -17 -35 0 -43 15 -74 129 -39 145 -78 238 -147 352 -30
50 -57 106 -60 125 -3 19 -10 34 -14 34 -11 0 -10 6 -9 -145 1 -134 -24 -288
-67 -415 -28 -82 -47 -123 -37 -78 4 18 2 28 -5 28 -8 0 -11 52 -11 170 0 104
-4 170 -10 170 -5 0 -11 -10 -14 -22 -2 -13 -9 -52 -16 -88 -14 -78 -37 -144
-76 -224 -33 -66 -60 -88 -50 -40 15 72 36 310 36 416 0 135 -16 259 -37 285
-13 16 -14 15 -9 -17 3 -19 9 -87 12 -150 6 -97 2 -143 -21 -295 -32 -214 -78
-342 -149 -421 -5 -5 -22 -8 -38 -6 l-28 4 0 117 c0 64 -5 150 -10 191 -7 52
-7 106 1 175 12 104 21 153 89 470 99 456 122 594 141 840 13 169 6 454 -17
690 -7 83 -14 181 -14 218 l0 68 84 117 c46 64 114 163 151 220 58 87 85 118
85 97z m-528 -510 c19 -8 58 -40 87 -71 57 -62 63 -83 10 -33 -19 17 -60 49
-91 71 -75 50 -77 63 -6 33z m419 -2562 c-12 -20 -14 -14 -5 12 4 9 9 14 11
11 3 -2 0 -13 -6 -23z"/>
<path d="M3940 6846 c0 -2 7 -9 15 -16 12 -10 15 -10 15 4 0 9 -7 16 -15 16
-8 0 -15 -2 -15 -4z"/>
<path d="M2920 6716 c0 -3 37 -17 83 -32 45 -14 87 -31 93 -35 11 -9 24 -2 24
12 0 5 -30 17 -67 28 -73 21 -133 33 -133 27z"/>
<path d="M4139 6683 c12 -18 24 -33 27 -33 9 0 -15 37 -33 51 -12 10 -11 5 6
-18z"/>
<path d="M3150 6650 c8 -5 22 -9 30 -9 10 0 8 3 -5 9 -27 12 -43 12 -25 0z"/>
<path d="M4180 6597 c0 -13 -9 -33 -20 -45 -21 -22 -28 -48 -10 -37 19 12 83
-8 116 -37 19 -17 34 -26 34 -22 0 13 -104 164 -112 164 -5 0 -8 -10 -8 -23z"/>
<path d="M3385 6557 c23 -13 55 -30 73 -38 18 -7 32 -17 32 -21 0 -24 -170
-64 -200 -48 -19 10 -7 -11 109 -192 24 -38 45 -68 47 -68 7 0 -13 36 -62 112
l-43 67 107 4 c59 2 116 6 127 8 20 4 42 -26 189 -258 27 -43 70 -109 96 -148
25 -38 53 -83 62 -100 70 -137 118 -213 158 -250 31 -28 30 -26 -12 35 -24 36
-68 110 -98 165 -29 55 -84 145 -121 200 -36 55 -103 159 -148 232 -121 196
-156 234 -256 283 -92 44 -123 53 -60 17z"/>
<path d="M2080 6444 c30 -14 65 -30 78 -35 12 -5 22 -12 22 -16 0 -21 -171
-62 -270 -64 -36 -1 -40 -2 -20 -8 22 -7 14 -13 -75 -58 -143 -73 -366 -200
-395 -227 -14 -12 -51 -40 -83 -61 -32 -21 -63 -46 -70 -54 -16 -20 -33 -30
238 148 44 29 166 95 270 147 149 74 207 97 267 109 43 8 98 23 123 34 l45 20
20 -39 c11 -21 27 -43 36 -48 14 -8 14 -11 -7 -26 -13 -9 -31 -16 -40 -16 -9
0 -24 -9 -34 -20 -10 -11 -27 -23 -39 -26 -11 -4 -27 -14 -34 -23 -8 -9 -11
-10 -7 -3 8 15 -17 16 -32 1 -6 -6 -9 -18 -6 -26 3 -7 2 -13 -3 -11 -5 2 -9 0
-9 -4 0 -4 -17 -19 -37 -33 -21 -14 -38 -30 -38 -36 0 -6 -25 -39 -55 -73
-101 -116 -150 -217 -164 -341 -5 -52 -9 -60 -26 -58 -20 1 -20 1 -1 -10 11
-7 36 -27 56 -44 21 -18 40 -33 44 -33 3 0 6 22 6 49 0 35 7 59 26 87 59 88
137 151 233 188 l56 22 1 75 c0 75 1 76 48 138 68 88 157 149 281 191 l50 17
-105 5 c-58 3 -118 12 -133 19 -31 14 -64 66 -50 79 4 4 42 2 83 -6 41 -7 86
-13 100 -12 29 0 32 0 -125 30 -60 11 -146 33 -189 49 -97 35 -109 36 -36 3z"/>
<path d="M4336 6387 c3 -10 9 -15 12 -12 3 3 0 11 -7 18 -10 9 -11 8 -5 -6z"/>
<path d="M2530 6352 c0 -24 33 -72 50 -72 10 0 22 -4 25 -10 3 -5 11 -10 17
-10 7 0 -7 14 -30 32 -23 18 -42 36 -42 40 0 4 17 8 37 8 20 0 34 2 32 4 -10
8 -89 15 -89 8z"/>
<path d="M4195 6338 c4 -12 11 -30 16 -38 7 -12 8 -10 9 6 l0 22 68 -17 67
-17 21 -65 c12 -35 43 -131 69 -214 26 -82 61 -177 78 -210 30 -61 72 -115 91
-115 5 0 -4 15 -21 33 -17 17 -39 52 -50 77 -18 41 -117 345 -157 480 -21 70
-36 95 -36 61 0 -23 -2 -24 -57 -17 -32 4 -68 14 -81 22 -23 15 -24 15 -17 -8z"/>
<path d="M2710 6302 c147 -101 270 -212 270 -243 0 -14 -32 -10 -76 10 -54 24
-112 83 -136 138 -17 40 -22 43 -56 43 -31 -1 -34 -2 -19 -11 15 -9 18 -18 12
-47 -14 -75 -66 -141 -168 -216 -47 -34 -250 -136 -272 -136 -13 0 -12 -4 5
-28 75 -102 -3 -300 -165 -419 l-30 -22 27 -1 c14 0 28 4 30 9 2 4 44 30 93
56 202 108 364 249 468 405 31 47 65 96 76 110 16 20 21 40 21 98 l0 73 45
-31 c56 -39 106 -60 142 -60 23 -1 38 -14 85 -78 124 -168 325 -364 372 -361
6 0 0 8 -14 17 -109 76 -189 161 -373 399 -66 85 -136 163 -163 184 -85 63
-184 129 -191 128 -5 0 3 -8 17 -17z"/>
<path d="M4230 6244 c0 -18 33 -109 37 -99 2 6 -6 33 -17 60 -10 28 -19 45
-20 39z"/>
<path d="M3475 6136 c15 -27 64 -91 108 -143 44 -51 89 -107 99 -123 10 -17
23 -30 29 -30 17 0 9 12 -76 110 -44 51 -100 121 -125 156 -58 81 -71 91 -35
30z"/>
<path d="M4870 6093 c0 -12 7 -23 15 -27 13 -5 14 -2 4 17 -17 32 -19 33 -19
10z"/>
<path d="M5260 6095 c0 -9 6 -12 15 -9 8 4 15 7 15 9 0 2 -7 5 -15 9 -9 3 -15
0 -15 -9z"/>
<path d="M4305 6040 c-3 -6 9 -29 27 -53 19 -23 43 -59 53 -80 24 -46 40 -60
22 -20 -16 38 -87 163 -92 163 -2 0 -7 -5 -10 -10z"/>
<path d="M5272 5985 c0 -16 4 -41 8 -55 7 -23 8 -22 8 10 0 19 -3 44 -8 55 -7
17 -9 15 -8 -10z"/>
<path d="M4871 5995 c1 -19 18 -51 18 -35 0 8 -4 22 -9 30 -5 8 -9 11 -9 5z"/>
<path d="M1174 5874 l-20 -42 38 25 c39 27 48 36 24 27 -9 -3 -16 2 -18 13 -2
13 -9 7 -24 -23z"/>
<path d="M4426 5830 c3 -14 10 -29 15 -34 14 -16 10 6 -7 34 l-15 25 7 -25z"/>
<path d="M5950 5799 c0 -5 5 -7 10 -4 6 3 10 8 10 11 0 2 -4 4 -10 4 -5 0 -10
-5 -10 -11z"/>
<path d="M4910 5765 c-10 -12 -10 -15 4 -15 9 0 16 7 16 15 0 8 -2 15 -4 15
-2 0 -9 -7 -16 -15z"/>
<path d="M1004 5728 l-19 -23 23 19 c21 18 27 26 19 26 -2 0 -12 -10 -23 -22z"/>
<path d="M4475 5711 c-4 -7 -3 -16 2 -20 6 -3 13 -13 16 -21 5 -13 5 -13 6 0
0 8 -4 24 -8 34 -6 15 -10 16 -16 7z"/>
<path d="M3791 5688 c-13 -21 -13 -22 2 -10 9 8 21 10 28 6 7 -4 10 -2 7 6 -7
23 -22 21 -37 -2z"/>
<path d="M4881 5670 c-13 -11 -19 -20 -14 -20 6 0 18 9 28 20 23 25 17 25 -14
0z"/>
<path d="M1503 5633 c15 -2 37 -2 50 0 12 2 0 4 -28 4 -27 0 -38 -2 -22 -4z"/>
<path d="M4450 5585 c-7 -9 -10 -18 -7 -21 3 -3 10 4 17 15 13 25 8 27 -10 6z"/>
<path d="M4397 5541 c-35 -23 -43 -31 -29 -31 6 0 24 11 39 25 33 28 29 31
-10 6z"/>
<path d="M4207 5519 c7 -7 15 -10 18 -7 3 3 -2 9 -12 12 -14 6 -15 5 -6 -5z"/>
<path d="M1290 5392 c0 -15 5 -19 20 -15 12 3 19 6 18 7 -2 1 -11 8 -20 15
-16 12 -18 11 -18 -7z"/>
<path d="M4343 5342 c-36 -76 -95 -234 -90 -239 3 -3 20 37 104 240 34 82 23
81 -14 -1z"/>
<path d="M5012 5330 c0 -14 2 -19 5 -12 2 6 2 18 0 25 -3 6 -5 1 -5 -13z"/>
<path d="M1282 5300 c0 -14 2 -19 5 -12 2 6 2 18 0 25 -3 6 -5 1 -5 -13z"/>
<path d="M1880 5280 c0 -32 1 -33 14 -14 8 10 11 21 8 24 -4 3 -10 9 -14 14
-5 5 -8 -6 -8 -24z"/>
<path d="M5032 5190 c0 -14 2 -19 5 -12 2 6 2 18 0 25 -3 6 -5 1 -5 -13z"/>
<path d="M1297 5193 c-11 -10 -8 -20 7 -26 10 -4 12 0 9 14 -6 21 -7 22 -16
12z"/>
<path d="M5770 5190 c0 -8 5 -22 10 -30 9 -13 10 -13 10 0 0 8 -5 22 -10 30
-9 13 -10 13 -10 0z"/>
<path d="M2292 5150 c0 -19 2 -27 5 -17 2 9 2 25 0 35 -3 9 -5 1 -5 -18z"/>
<path d="M1340 5114 c0 -6 19 -28 43 -49 l42 -40 -40 45 c-22 25 -41 47 -42
49 -2 2 -3 0 -3 -5z"/>
<path d="M3476 5004 c-15 -36 -25 -68 -23 -71 3 -2 17 26 31 63 15 36 25 68
23 71 -3 2 -17 -26 -31 -63z"/>
<path d="M4212 5015 c-7 -14 -12 -34 -11 -43 0 -9 7 1 15 22 16 45 13 59 -4
21z"/>
<path d="M5832 5015 c0 -11 6 -36 13 -55 8 -22 13 -28 13 -15 0 11 -6 36 -13
55 -8 22 -13 28 -13 15z"/>
<path d="M5055 4643 c0 -342 -12 -605 -35 -758 -53 -348 -86 -483 -202 -830
-102 -306 -168 -463 -269 -647 -32 -59 -59 -113 -59 -120 1 -41 114 178 230
447 5 11 16 36 24 55 24 54 175 496 196 576 56 207 102 507 121 789 14 202 15
747 2 813 -5 27 -8 -97 -8 -325z"/>
<path d="M672 4966 c-17 -37 -15 -45 4 -18 8 12 14 27 12 33 -2 6 -9 -1 -16
-15z"/>
<path d="M1093 4945 c0 -22 2 -30 4 -17 2 12 2 30 0 40 -3 9 -5 -1 -4 -23z"/>
<path d="M4180 4924 c-11 -27 -13 -51 -5 -42 8 8 25 68 19 68 -2 0 -9 -12 -14
-26z"/>
<path d="M3430 4884 c-6 -16 -16 -42 -22 -57 -6 -15 -8 -30 -6 -33 3 -2 15 21
27 52 12 31 19 59 16 62 -2 3 -9 -8 -15 -24z"/>
<path d="M1812 4794 l2 -89 5 75 6 75 60 6 60 6 -52 1 c-28 1 -58 5 -67 8 -14
5 -16 -5 -14 -82z"/>
<path d="M1975 4860 c3 -5 8 -10 11 -10 2 0 4 5 4 10 0 6 -5 10 -11 10 -5 0
-7 -4 -4 -10z"/>
<path d="M1415 4820 c-3 -5 -1 -18 4 -27 6 -10 11 -13 11 -6 0 6 3 18 6 27 7
17 -11 22 -21 6z"/>
<path d="M2911 4814 c0 -11 3 -14 6 -6 3 7 2 16 -1 19 -3 4 -6 -2 -5 -13z"/>
<path d="M586 4770 c-22 -56 -19 -65 5 -11 11 24 18 46 15 48 -2 2 -11 -14
-20 -37z"/>
<path d="M2896 4775 c-3 -9 -6 -22 -5 -28 0 -7 5 -1 10 12 5 13 8 26 5 28 -2
2 -6 -3 -10 -12z"/>
<path d="M3356 4669 c-36 -113 -48 -168 -19 -94 25 66 63 198 59 202 -2 3 -20
-46 -40 -108z"/>
<path d="M4127 4770 c-48 -148 -113 -381 -152 -542 -14 -60 -36 -154 -50 -210
-31 -130 -48 -219 -80 -438 -36 -245 -46 -415 -50 -795 l-3 -330 8 290 c4 160
10 319 14 355 3 36 11 126 17 200 11 139 49 414 73 530 7 36 19 97 26 135 28
159 153 635 196 752 9 23 14 47 11 55 -4 10 -6 10 -10 -2z"/>
<path d="M2882 4710 c0 -14 2 -19 5 -12 2 6 2 18 0 25 -3 6 -5 1 -5 -13z"/>
<path d="M536 4639 c-15 -39 -25 -74 -23 -76 3 -2 16 29 31 68 15 39 25 74 23
76 -3 2 -16 -29 -31 -68z"/>
<path d="M1375 4628 c-3 -18 -1 -46 4 -63 7 -25 9 -20 8 33 0 34 -1 62 -3 62
-2 0 -6 -15 -9 -32z"/>
<path d="M1895 4602 c-26 -84 -52 -199 -58 -262 -5 -52 -5 -53 5 -15 32 126
78 328 75 331 -2 2 -12 -22 -22 -54z"/>
<path d="M2856 4623 c-3 -10 -10 -38 -15 -63 -5 -25 -23 -112 -39 -195 -68
-331 -100 -692 -89 -1005 7 -192 23 -326 68 -590 17 -96 35 -204 40 -240 6
-36 19 -96 30 -133 53 -182 -26 -34 -104 194 -51 149 -85 274 -117 424 -79
376 -93 504 -94 910 l-1 320 -13 -145 c-24 -279 13 -747 88 -1095 39 -179 145
-515 200 -630 5 -11 27 -58 48 -105 46 -101 152 -290 152 -272 0 7 -11 34 -24
60 -115 230 -221 758 -248 1242 -9 173 -9 247 6 475 19 314 37 447 96 715 32
147 33 150 27 150 -3 0 -8 -8 -11 -17z m43 -2388 c0 -5 -4 -3 -9 5 -5 8 -9 22
-9 30 0 16 17 -16 18 -35z"/>
<path d="M5785 4219 c0 -369 -6 -444 -56 -738 -28 -162 -43 -227 -100 -441
-65 -241 -217 -634 -331 -858 -71 -139 -93 -192 -69 -166 25 26 179 353 250
529 134 336 218 621 280 950 31 167 55 561 47 795 -10 328 -21 292 -21 -71z"/>
<path d="M3306 4505 c-3 -9 -6 -24 -5 -33 0 -9 5 -4 10 12 9 32 6 48 -5 21z"/>
<path d="M486 4495 c-9 -26 -7 -32 5 -12 6 10 9 21 6 23 -2 3 -7 -2 -11 -11z"/>
<path d="M1650 4439 c-22 -18 -22 -19 -3 -10 12 6 25 16 28 21 9 15 3 12 -25
-11z"/>
<path d="M36 4395 c-21 -30 -36 -59 -34 -65 3 -10 88 101 88 115 0 17 -21 -2
-54 -50z"/>
<path d="M3291 4434 c0 -11 3 -14 6 -6 3 7 2 16 -1 19 -3 4 -6 -2 -5 -13z"/>
<path d="M406 4258 c-81 -253 -110 -384 -175 -778 -45 -276 -51 -336 -58 -555
-8 -280 27 -606 92 -855 13 -52 33 -140 44 -195 11 -55 27 -129 35 -165 23
-95 20 -207 -8 -332 -14 -59 -30 -116 -36 -127 -9 -18 -8 -21 13 -21 14 0 38
16 62 41 l40 41 79 -5 79 -4 48 -54 c56 -62 63 -57 18 13 -56 87 -102 219 -66
189 29 -24 21 3 -34 116 -85 177 -167 432 -204 638 -9 50 -22 122 -30 160 -18
92 -32 239 -50 526 -24 382 -2 693 74 1027 29 125 94 361 126 455 9 27 14 51
12 54 -3 2 -30 -74 -61 -169z m138 -2859 c14 -36 26 -69 26 -72 0 -9 -67 -9
-107 -1 l-30 6 25 46 c35 65 53 94 57 90 1 -1 14 -33 29 -69z"/>
<path d="M3276 4393 c-2 -10 -7 -34 -10 -53 -8 -44 8 -11 17 38 7 34 2 45 -7
15z"/>
<path d="M3250 4298 c0 -4 -17 -84 -39 -180 -103 -458 -143 -902 -116 -1300
15 -229 38 -438 54 -493 14 -46 13 -9 -4 101 -32 216 -48 500 -41 729 9 318
32 500 117 934 22 112 37 206 34 209 -3 3 -5 3 -5 0z"/>
<path d="M1536 4204 c-5 -14 -4 -15 9 -4 17 14 19 20 6 20 -5 0 -12 -7 -15
-16z"/>
<path d="M10 4039 c-18 -33 -6 -42 13 -9 10 16 14 30 8 30 -6 0 -15 -9 -21
-21z"/>
<path d="M1932 3803 c-10 -26 -7 -252 6 -443 13 -189 67 -520 118 -725 36
-146 128 -422 170 -512 13 -28 24 -55 24 -58 0 -10 130 -227 148 -247 30 -35
31 -17 2 25 -33 49 -87 141 -136 232 -34 63 -98 239 -133 365 -11 41 -32 116
-45 165 -85 304 -160 904 -140 1133 6 79 1 102 -14 65z"/>
<path d="M5841 2921 c-7 -33 -45 -151 -83 -263 -81 -238 -88 -264 -49 -183 56
117 160 462 149 496 -2 6 -10 -17 -17 -50z"/>
<path d="M1736 2758 c-28 -43 -46 -96 -51 -155 -5 -56 -5 -57 9 -28 9 17 15
38 16 47 0 10 12 47 26 83 27 68 27 95 0 53z"/>
<path d="M5636 2325 c-9 -26 -7 -32 5 -12 6 10 9 21 6 23 -2 3 -7 -2 -11 -11z"/>
<path d="M5602 2248 c-6 -18 -47 -96 -91 -173 -43 -77 -77 -142 -75 -144 2 -2
14 3 26 11 24 16 88 31 88 22 0 -3 -10 -14 -22 -23 -21 -18 -19 -18 76 -23 81
-4 106 -10 154 -34 61 -32 130 -108 172 -190 26 -49 46 -70 35 -35 -5 17 -3
20 11 14 15 -6 17 0 12 55 -4 40 -2 62 5 65 6 2 -6 35 -31 79 -42 76 -43 88
-11 88 10 0 21 5 25 11 4 7 -5 10 -27 8 -60 -5 -104 21 -61 35 9 4 28 15 42
26 23 19 22 18 -27 -2 l-51 -21 -53 21 c-57 24 -133 28 -219 12 -29 -6 -55 -8
-58 -5 -2 2 10 33 27 69 32 68 50 81 98 71 27 -5 26 -5 -4 7 -43 17 -46 23
-33 48 6 11 10 26 8 31 -2 6 -9 -5 -16 -23z m-57 -243 c-48 -29 -75 -34 -54
-9 16 19 46 32 74 33 14 1 8 -6 -20 -24z m240 -34 c3 -5 1 -13 -5 -16 -15 -9
-43 3 -35 15 8 13 32 13 40 1z"/>
<path d="M5749 2150 c24 -11 46 -18 49 -16 5 6 -65 36 -82 36 -6 0 9 -9 33
-20z"/>
<path d="M186 2052 c-3 -42 -8 -120 -11 -172 -9 -140 -33 -263 -72 -370 -51
-137 -49 -135 -79 -115 -22 14 -24 14 -24 -1 0 -9 8 -22 17 -29 16 -12 16 -15
-1 -47 -10 -19 -17 -42 -15 -52 3 -12 17 6 45 55 64 115 111 236 128 329 31
169 47 462 27 474 -5 3 -12 -29 -15 -72z"/>
<path d="M5330 1728 l-21 -43 31 35 c31 35 37 50 20 50 -5 0 -19 -19 -30 -42z"/>
<path d="M260 1398 c-23 -46 -60 -109 -83 -141 -22 -31 -38 -60 -35 -62 15
-16 135 157 174 250 12 30 12 35 0 35 -8 0 -33 -37 -56 -82z"/>
<path d="M4460 1181 c0 -5 11 -23 25 -39 43 -51 92 -64 262 -70 l153 -5 18
-31 c68 -116 162 -164 222 -115 20 17 21 19 5 13 -84 -31 -134 -10 -204 86
l-49 68 -139 -1 c-125 -1 -143 1 -186 22 -27 13 -58 36 -69 52 -22 29 -38 37
-38 20z"/>
<path d="M570 956 c-36 -24 -110 -73 -165 -109 -88 -57 -150 -100 -352 -243
-29 -21 -51 -39 -49 -41 2 -2 70 43 151 99 81 57 224 154 318 215 179 119 186
123 171 122 -5 0 -38 -20 -74 -43z"/>
</g>
</svg>
